<svg xmlns="http://www.w3.org/2000/svg" xmlns:xlink="http://www.w3.org/1999/xlink" width="500" zoomAndPan="magnify" viewBox="0 0 375 374.999991" height="500" preserveAspectRatio="xMidYMid meet" version="1.0"><defs><clipPath id="dde068f749"><path d="M 116 69 L 245 69 L 245 288 L 116 288 Z M 116 69 " clip-rule="nonzero"/></clipPath><clipPath id="ed92fff70a"><path d="M 0 181.699219 L 181.902344 -0.203125 L 374.941406 192.835938 L 193.039062 374.738281 Z M 0 181.699219 " clip-rule="nonzero"/></clipPath><clipPath id="de6aff2cf4"><path d="M 0 181.699219 L 181.902344 -0.203125 L 374.941406 192.835938 L 193.039062 374.738281 Z M 0 181.699219 " clip-rule="nonzero"/></clipPath><clipPath id="cd2713caf0"><path d="M 80 3 L 194 3 L 194 196 L 80 196 Z M 80 3 " clip-rule="nonzero"/></clipPath><clipPath id="95034f6c00"><path d="M 0 181.699219 L 181.902344 -0.203125 L 374.941406 192.835938 L 193.039062 374.738281 Z M 0 181.699219 " clip-rule="nonzero"/></clipPath><clipPath id="3a72a0d290"><path d="M 0 181.699219 L 181.902344 -0.203125 L 374.941406 192.835938 L 193.039062 374.738281 Z M 0 181.699219 " clip-rule="nonzero"/></clipPath><clipPath id="2af6224e99"><path d="M 46.328125 135.542969 L 181.769531 0.0976562 L 243.425781 61.753906 L 107.984375 197.199219 Z M 46.328125 135.542969 " clip-rule="nonzero"/></clipPath><clipPath id="5f24594b0e"><path d="M 162 143 L 289 143 L 289 375 L 162 375 Z M 162 143 " clip-rule="nonzero"/></clipPath><clipPath id="63bcad8fc1"><path d="M 0 181.699219 L 181.902344 -0.203125 L 374.941406 192.835938 L 193.039062 374.738281 Z M 0 181.699219 " clip-rule="nonzero"/></clipPath><clipPath id="4a417e54f4"><path d="M 0 181.699219 L 181.902344 -0.203125 L 374.941406 192.835938 L 193.039062 374.738281 Z M 0 181.699219 " clip-rule="nonzero"/></clipPath><clipPath id="1d6b66b1c6"><path d="M 118.132812 299.832031 L 276.785156 141.183594 L 351.867188 216.261719 L 193.214844 374.914062 Z M 118.132812 299.832031 " clip-rule="nonzero"/></clipPath></defs><g clip-path="url(#dde068f749)"><g clip-path="url(#ed92fff70a)"><g clip-path="url(#de6aff2cf4)"><path fill="#f5b567" d="M 203.648438 164.707031 C 270.378906 113.183594 234.402344 69.980469 234.402344 69.980469 C 234.402344 69.980469 43.417969 205.917969 147.984375 287.113281 C 147.984375 287.113281 105.332031 240.621094 203.648438 164.707031 " fill-opacity="1" fill-rule="nonzero"/></g></g></g><g clip-path="url(#cd2713caf0)"><g clip-path="url(#95034f6c00)"><g clip-path="url(#3a72a0d290)"><g clip-path="url(#2af6224e99)"><path fill="#a5c9a1" d="M 157.882812 87.460938 C 216.066406 40.546875 185.148438 3.480469 185.148438 3.480469 C 185.148438 3.480469 15.820312 124 108.527344 195.984375 C 108.527344 195.984375 69.894531 158.414062 157.882812 87.460938 " fill-opacity="1" fill-rule="nonzero"/></g></g></g></g><g clip-path="url(#5f24594b0e)"><g clip-path="url(#63bcad8fc1)"><g clip-path="url(#4a417e54f4)"><g clip-path="url(#1d6b66b1c6)"><path fill="#4ba3c7" d="M 193.554688 374.574219 C 193.554688 374.574219 160.371094 319.390625 248.878906 244.566406 C 314.640625 188.96875 279.445312 143.953125 279.445312 143.953125 C 279.445312 143.953125 89.625 288.335938 193.554688 374.574219 " fill-opacity="1" fill-rule="nonzero"/></g></g></g></g></svg>